# xmcd CD database file
#
# Track frame offsets:
#	150
#	16825
#	33165
#	45135
#	71771
#	91841
#	110272
#	134235
#	149143
#	165922
#	183304
#	206986
#
# Disc length: 3077 seconds
#
# Revision: 0
# Processed by: cddbd v1.5.2PL0 Copyright (c) Steve Scherf et al.
# Submitted via: CDex 1.70beta2
#
DISCID=a30c030c
DTITLE=High Society - All That Jazz - Disc 2
DYEAR=1900
DGENRE=Jazz
TTITLE0=Jamie Cullum - twentysomething
TTITLE1=Natalie Cole - better than anything
TTITLE2=Ute Lemper - ich bin die fesche lola
TTITLE3=Louis Armstrong and Ella Firtzgerald - cheek to cheek
TTITLE4=Linda Ronstadt - cry me a river
TTITLE5=Johnny Hartmann - i just dropped by to say hello
TTITLE6=Sitje Nergaard - everytime we say goodbye
TTITLE7=Oscar Peterson - let's fall in love
TTITLE8=Mel Tormé - blue moon
TTITLE9=Diane Schuur - glory of love
TTITLE10=Claressa Monteiro - the way you look tonight
TTITLE11=Joshua Payne - let it be me
EXTD=
EXTT0=
EXTT1=
EXTT2=
EXTT3=
EXTT4=
EXTT5=
EXTT6=
EXTT7=
EXTT8=
EXTT9=
EXTT10=
EXTT11=
PLAYORDER=
